<svg width="466" height="457" viewBox="0 0 466 457" fill="none" xmlns="http://www.w3.org/2000/svg">
<rect x="35" y="92" width="330" height="330" fill="#F1D3AF"/>
<path fill-rule="evenodd" clip-rule="evenodd" d="M400 57H0V457H400V57ZM365 92H35V396.148L35.3674 396.51L83.2073 348L109.176 373.61L61.4545 422H365V92ZM60.4518 421.983L60.4346 422H60.4694L60.4518 421.983Z" fill="#270100"/>
<path fill-rule="evenodd" clip-rule="evenodd" d="M234.046 330.015C222.248 351.345 200.376 367.728 173.621 370.645C127.417 372.542 89.4097 327.026 86.8329 285.936C85.0897 258.138 101.983 241.334 126.44 233.371C118.059 224.791 109.091 210.762 102.406 200C68.5578 216.767 45 243.762 45 286.568C45 352.313 107.745 413 170.499 413C215.803 413 242.229 384.665 260 345.12C250.835 340.748 240.299 334.997 234.046 330.015Z" fill="#270100"/>
<path d="M374.444 240.577C469.444 270.077 417.837 375.077 332.444 375.077C247.052 375.077 178.122 310.01 155.944 290.077C119.88 257.664 13.5 126 103 54C227.5 -6.5 176.945 179.248 374.444 240.577Z" fill="#2A0303"/>
<path d="M434.738 95.2216C436.373 93.3892 439.234 95.5482 437.92 97.6234L345.558 243.486C344.932 244.474 343.596 244.717 342.663 244.013L320.056 226.947C319.122 226.243 318.99 224.891 319.769 224.019L434.738 95.2216Z" fill="#270100"/>
<path d="M355.926 28.2569C357.97 26.8953 360.195 29.7048 358.401 31.3823L232.294 149.297C231.44 150.095 230.086 149.994 229.36 149.077L211.777 126.87C211.051 125.954 211.263 124.613 212.236 123.964L355.926 28.2569Z" fill="#270100"/>
<path d="M138.877 36.0656C139.462 46.6885 138.18 52 130.108 52C122.036 52 119 44.3992 119 34.2951C119 24.191 124.262 17.1803 130.108 16C137.708 17.7705 138.877 26.0328 138.877 36.0656Z" fill="#270100"/>
<path d="M116.55 31.8053C122.577 42.5772 124.151 48.6795 116.77 52.3522C109.389 56.0249 102.683 49.5085 97.4589 39.0097C92.2349 28.511 93.4216 18.8324 98.1573 14.9459C106.022 13.3275 111.363 21.3806 116.55 31.8053Z" fill="#270100"/>
<path d="M441.648 299.514C453.983 299.271 460.128 300.4 460.014 306.815C459.899 313.23 451.035 315.485 439.311 315.275C427.586 315.065 419.526 310.737 418.239 306.067C420.402 300.063 430.006 299.306 441.648 299.514Z" fill="#270100"/>
<path d="M105.333 45.9215C115.012 50.2014 119.118 53.7729 115.364 61.1128C111.609 68.4527 103.467 67.7706 94.5201 63.1941C85.5734 58.6176 81.8131 50.6578 83.4872 44.8071C88.59 38.6982 96.4498 41.3773 105.333 45.9215Z" fill="#270100"/>
<path d="M437.56 311.816C446.757 317.043 450.585 320.866 446.635 327.068C442.684 333.269 434.823 331.54 426.347 326.141C417.871 320.742 414.565 312.954 416.436 307.831C421.641 302.939 429.144 306.455 437.56 311.816Z" fill="#270100"/>
<path d="M438.666 299.406C435.181 299.085 426.481 306.317 426.481 306.317C426.481 306.317 420.897 306.972 421.784 297.348C424.739 287.076 436.519 279.123 444.256 282.347C447.151 283.618 442.565 295.246 438.666 299.406Z" fill="#2A0303"/>
<path d="M336.675 246.96C440.675 269.46 413.175 349.96 343.175 349.96C268.094 349.96 192.175 286.96 172.675 269.46C140.966 241.004 46.825 119.539 108.5 73.9998C200 16.5 151.175 163.46 336.675 246.96Z" fill="#BF452D"/>
<path d="M191 111L204.5 132V132C187.187 133.96 170.781 140.776 157.175 151.66L153.782 154.374C153.521 154.583 153.143 154.348 153.214 154.022V154.022C157.452 134.65 171.122 118.695 189.614 111.537L191 111Z" fill="#280105"/>
<path d="M319.566 231.754L339.596 246.655V246.655C324.082 254.586 311.127 266.743 302.226 281.721L300.006 285.456C299.835 285.744 299.399 285.657 299.35 285.326V285.326C296.495 265.703 303.671 245.956 318.458 232.744L319.566 231.754Z" fill="#280105"/>
<path d="M248.663 178.794L264.833 197.814V197.814C247.934 202.057 232.579 210.991 220.54 223.587L217.537 226.728C217.307 226.97 216.9 226.787 216.928 226.454V226.454C218.554 206.691 229.983 189.061 247.361 179.509L248.663 178.794Z" fill="#280105"/>
</svg>
