<svg width="503" height="675" viewBox="0 0 503 675" fill="none" xmlns="http://www.w3.org/2000/svg">
<rect x="72" y="92" width="330" height="330" fill="#F1D3AF"/>
<path fill-rule="evenodd" clip-rule="evenodd" d="M437 57H37V457H437V57ZM402 92H72V396.148L72.3674 396.51L120.207 348L146.176 373.61L98.4545 422H402V92ZM97.4518 421.983L97.4346 422H97.4694L97.4518 421.983Z" fill="#270100"/>
<path fill-rule="evenodd" clip-rule="evenodd" d="M271.046 330.015C259.248 351.345 237.376 367.728 210.621 370.645C164.417 372.542 126.41 327.026 123.833 285.936C122.09 258.138 138.983 241.334 163.44 233.371C155.059 224.791 146.091 210.762 139.406 200C105.558 216.767 82 243.762 82 286.568C82 352.313 144.745 413 207.499 413C252.803 413 279.229 384.665 297 345.12C287.835 340.748 277.299 334.997 271.046 330.015Z" fill="#270100"/>
<path d="M411.444 240.577C506.444 270.077 454.837 375.077 369.444 375.077C284.052 375.077 215.122 310.01 192.944 290.077C156.88 257.664 50.5 126 140 54C264.5 -6.5 213.945 179.248 411.444 240.577Z" fill="#2A0303"/>
<path d="M471.738 95.2216C473.373 93.3892 476.234 95.5482 474.92 97.6234L382.558 243.486C381.932 244.474 380.596 244.717 379.663 244.013L357.056 226.947C356.122 226.243 355.99 224.891 356.769 224.019L471.738 95.2216Z" fill="#270100"/>
<path d="M392.926 28.2569C394.97 26.8953 397.195 29.7048 395.401 31.3823L269.294 149.297C268.44 150.095 267.086 149.994 266.36 149.077L248.777 126.87C248.051 125.954 248.263 124.613 249.236 123.964L392.926 28.2569Z" fill="#270100"/>
<path d="M175.877 36.0656C176.462 46.6885 175.18 52 167.108 52C159.036 52 156 44.3992 156 34.2951C156 24.191 161.262 17.1803 167.108 16C174.708 17.7705 175.877 26.0328 175.877 36.0656Z" fill="#270100"/>
<path d="M153.55 31.8053C159.577 42.5772 161.151 48.6795 153.77 52.3522C146.389 56.0249 139.683 49.5085 134.459 39.0097C129.235 28.511 130.422 18.8324 135.157 14.9459C143.022 13.3275 148.363 21.3806 153.55 31.8053Z" fill="#270100"/>
<path d="M478.648 299.514C490.983 299.271 497.128 300.4 497.014 306.815C496.899 313.23 488.035 315.485 476.311 315.275C464.586 315.065 456.526 310.737 455.239 306.067C457.402 300.063 467.006 299.306 478.648 299.514Z" fill="#270100"/>
<path d="M142.333 45.9215C152.012 50.2014 156.118 53.7729 152.364 61.1128C148.609 68.4527 140.467 67.7706 131.52 63.1941C122.573 58.6176 118.813 50.6578 120.487 44.8071C125.59 38.6982 133.45 41.3773 142.333 45.9215Z" fill="#270100"/>
<path d="M474.56 311.816C483.757 317.043 487.585 320.866 483.635 327.068C479.684 333.269 471.823 331.54 463.347 326.141C454.871 320.742 451.565 312.954 453.436 307.831C458.641 302.939 466.144 306.455 474.56 311.816Z" fill="#270100"/>
<path d="M475.666 299.406C472.181 299.085 463.481 306.317 463.481 306.317C463.481 306.317 457.897 306.972 458.784 297.348C461.739 287.076 473.519 279.123 481.256 282.347C484.151 283.618 479.565 295.246 475.666 299.406Z" fill="#2A0303"/>
<path d="M373.675 246.96C477.675 269.46 450.175 349.96 380.175 349.96C305.094 349.96 229.175 286.96 209.675 269.46C177.966 241.004 83.825 119.539 145.5 73.9998C237 16.5 188.175 163.46 373.675 246.96Z" fill="#BF452D"/>
<path d="M228 111L241.5 132V132C224.187 133.96 207.781 140.776 194.175 151.66L190.782 154.374C190.521 154.583 190.143 154.348 190.214 154.022V154.022C194.452 134.65 208.122 118.695 226.614 111.537L228 111Z" fill="#280105"/>
<path d="M356.566 231.754L376.596 246.655V246.655C361.082 254.586 348.127 266.743 339.226 281.721L337.006 285.456C336.835 285.744 336.399 285.657 336.35 285.326V285.326C333.495 265.703 340.671 245.956 355.458 232.744L356.566 231.754Z" fill="#280105"/>
<path d="M285.663 178.794L301.833 197.814V197.814C284.934 202.057 269.579 210.991 257.54 223.587L254.537 226.728C254.307 226.97 253.9 226.787 253.928 226.454V226.454C255.554 206.691 266.983 189.061 284.361 179.509L285.663 178.794Z" fill="#280105"/>
<path d="M140.053 563.812C140.053 562.396 139.844 561.125 139.428 560C139.011 558.833 138.24 557.75 137.115 556.75C135.99 555.75 134.365 554.75 132.24 553.75C130.157 552.708 127.407 551.625 123.99 550.5C119.99 549.167 116.136 547.667 112.428 546C108.719 544.292 105.407 542.312 102.49 540.062C99.5733 537.771 97.2608 535.104 95.5525 532.062C93.8442 528.979 92.99 525.396 92.99 521.312C92.99 517.396 93.865 513.875 95.615 510.75C97.365 507.583 99.8025 504.896 102.928 502.688C106.094 500.438 109.803 498.729 114.053 497.562C118.303 496.354 122.948 495.75 127.99 495.75C134.657 495.75 140.532 496.917 145.615 499.25C150.74 501.542 154.74 504.812 157.615 509.062C160.532 513.271 161.99 518.25 161.99 524H140.178C140.178 521.708 139.698 519.688 138.74 517.938C137.823 516.188 136.428 514.812 134.553 513.812C132.678 512.812 130.323 512.312 127.49 512.312C124.74 512.312 122.428 512.729 120.553 513.562C118.678 514.396 117.261 515.521 116.303 516.938C115.344 518.312 114.865 519.833 114.865 521.5C114.865 522.875 115.24 524.125 115.99 525.25C116.782 526.333 117.886 527.354 119.303 528.312C120.761 529.271 122.511 530.188 124.553 531.062C126.636 531.938 128.969 532.792 131.553 533.625C136.386 535.167 140.678 536.896 144.428 538.812C148.219 540.688 151.407 542.833 153.99 545.25C156.615 547.625 158.594 550.333 159.928 553.375C161.303 556.417 161.99 559.854 161.99 563.688C161.99 567.771 161.198 571.396 159.615 574.562C158.032 577.729 155.761 580.417 152.803 582.625C149.844 584.792 146.303 586.438 142.178 587.562C138.053 588.688 133.448 589.25 128.365 589.25C123.698 589.25 119.094 588.667 114.553 587.5C110.053 586.292 105.969 584.458 102.303 582C98.6358 579.5 95.6983 576.312 93.49 572.438C91.3233 568.521 90.24 563.875 90.24 558.5H112.24C112.24 561.167 112.594 563.417 113.303 565.25C114.011 567.083 115.053 568.562 116.428 569.688C117.803 570.771 119.49 571.562 121.49 572.062C123.49 572.521 125.782 572.75 128.365 572.75C131.157 572.75 133.407 572.354 135.115 571.562C136.823 570.729 138.073 569.646 138.865 568.312C139.657 566.938 140.053 565.438 140.053 563.812ZM215.705 516.125L193.518 588H169.955L203.393 497H218.33L215.705 516.125ZM234.08 588L211.83 516.125L208.955 497H224.08L257.705 588H234.08ZM233.205 554.062V571H186.518V554.062H233.205ZM291.545 497V588H269.67V497H291.545ZM340.385 588H320.198L320.323 571.125H340.385C344.552 571.125 348.073 570.125 350.948 568.125C353.864 566.125 356.073 563.146 357.573 559.188C359.114 555.188 359.885 550.271 359.885 544.438V540.5C359.885 536.125 359.448 532.292 358.573 529C357.739 525.667 356.489 522.896 354.823 520.688C353.156 518.438 351.073 516.75 348.573 515.625C346.114 514.5 343.281 513.938 340.073 513.938H319.823V497H340.073C346.239 497 351.885 498.062 357.01 500.188C362.177 502.271 366.635 505.271 370.385 509.188C374.177 513.062 377.093 517.667 379.135 523C381.218 528.292 382.26 534.167 382.26 540.625V544.438C382.26 550.854 381.218 556.729 379.135 562.062C377.093 567.396 374.198 572 370.448 575.875C366.698 579.75 362.26 582.75 357.135 584.875C352.052 586.958 346.468 588 340.385 588ZM332.76 497V588H310.823V497H332.76Z" fill="#270000"/>
<path d="M13.1 632.281V659H3.35001V625.188H12.5063L13.1 632.281ZM11.85 640.906L9.38126 640.969C9.38126 638.594 9.66251 636.417 10.225 634.438C10.8083 632.438 11.6521 630.698 12.7563 629.219C13.8604 627.74 15.225 626.594 16.85 625.781C18.4958 624.969 20.3917 624.562 22.5375 624.562C24.0375 624.562 25.4021 624.792 26.6313 625.25C27.8604 625.688 28.9125 626.385 29.7875 627.344C30.6833 628.281 31.3708 629.51 31.85 631.031C32.3292 632.531 32.5688 634.333 32.5688 636.438V659H22.8188V637.625C22.8188 636.125 22.6313 634.99 22.2563 634.219C21.9021 633.427 21.3813 632.885 20.6938 632.594C20.0063 632.302 19.1833 632.156 18.225 632.156C17.1833 632.156 16.2563 632.385 15.4438 632.844C14.6521 633.281 13.9854 633.896 13.4438 634.688C12.9021 635.479 12.4958 636.406 12.225 637.469C11.975 638.531 11.85 639.677 11.85 640.906ZM31.5688 640.406L28.475 640.656C28.475 638.365 28.7458 636.24 29.2875 634.281C29.8292 632.323 30.6417 630.625 31.725 629.188C32.8083 627.729 34.1521 626.594 35.7563 625.781C37.3813 624.969 39.2667 624.562 41.4125 624.562C42.9958 624.562 44.4333 624.792 45.725 625.25C47.0375 625.708 48.1625 626.448 49.1 627.469C50.0583 628.49 50.7979 629.833 51.3188 631.5C51.8396 633.146 52.1 635.167 52.1 637.562V659H42.2875V637.562C42.2875 636.083 42.1 634.958 41.725 634.188C41.3708 633.417 40.85 632.885 40.1625 632.594C39.4958 632.302 38.6938 632.156 37.7563 632.156C36.7146 632.156 35.8083 632.375 35.0375 632.812C34.2667 633.229 33.6208 633.812 33.1 634.562C32.5792 635.292 32.1938 636.156 31.9438 637.156C31.6938 638.156 31.5688 639.24 31.5688 640.406ZM80.9688 659.625C78.2813 659.625 75.875 659.198 73.75 658.344C71.625 657.49 69.8229 656.312 68.3438 654.812C66.8854 653.292 65.7708 651.542 65 649.562C64.2292 647.583 63.8438 645.469 63.8438 643.219V642.031C63.8438 639.51 64.1979 637.188 64.9063 635.062C65.6146 632.938 66.6458 631.094 68 629.531C69.375 627.948 71.0625 626.729 73.0625 625.875C75.0625 625 77.3438 624.562 79.9063 624.562C82.3021 624.562 84.4375 624.958 86.3125 625.75C88.1875 626.521 89.7708 627.635 91.0625 629.094C92.3542 630.531 93.3333 632.271 94 634.312C94.6875 636.333 95.0313 638.604 95.0313 641.125V645.125H67.7813V638.844H85.4688V638.094C85.4688 636.906 85.25 635.865 84.8125 634.969C84.3958 634.073 83.7708 633.385 82.9375 632.906C82.125 632.406 81.0938 632.156 79.8438 632.156C78.6563 632.156 77.6667 632.406 76.875 632.906C76.0833 633.406 75.4479 634.115 74.9688 635.031C74.5104 635.927 74.1771 636.979 73.9688 638.188C73.7604 639.375 73.6563 640.656 73.6563 642.031V643.219C73.6563 644.531 73.8333 645.729 74.1875 646.812C74.5417 647.896 75.0625 648.823 75.75 649.594C76.4375 650.365 77.2708 650.969 78.25 651.406C79.2292 651.844 80.3438 652.062 81.5938 652.062C83.1354 652.062 84.6042 651.771 86 651.188C87.3958 650.583 88.6042 649.646 89.625 648.375L94.1875 653.594C93.5 654.594 92.5313 655.562 91.2813 656.5C90.0521 657.417 88.5729 658.167 86.8438 658.75C85.1146 659.333 83.1563 659.625 80.9688 659.625ZM124.088 650.938V636.438C124.088 635.417 123.931 634.542 123.619 633.812C123.306 633.083 122.817 632.51 122.15 632.094C121.483 631.677 120.619 631.469 119.556 631.469C118.66 631.469 117.879 631.625 117.213 631.938C116.567 632.25 116.067 632.698 115.713 633.281C115.379 633.865 115.213 634.583 115.213 635.438H105.463C105.463 633.917 105.806 632.5 106.494 631.188C107.181 629.875 108.16 628.719 109.431 627.719C110.723 626.719 112.265 625.948 114.056 625.406C115.848 624.844 117.858 624.562 120.088 624.562C122.733 624.562 125.088 625.01 127.15 625.906C129.233 626.781 130.879 628.104 132.088 629.875C133.296 631.625 133.9 633.833 133.9 636.5V650.656C133.9 652.698 134.015 654.302 134.244 655.469C134.494 656.615 134.848 657.615 135.306 658.469V659H125.463C125.004 658.021 124.66 656.812 124.431 655.375C124.202 653.917 124.088 652.438 124.088 650.938ZM125.306 638.375L125.369 643.75H120.525C119.442 643.75 118.504 643.885 117.713 644.156C116.942 644.427 116.317 644.802 115.838 645.281C115.358 645.74 115.004 646.281 114.775 646.906C114.567 647.51 114.463 648.177 114.463 648.906C114.463 649.594 114.629 650.219 114.963 650.781C115.296 651.323 115.754 651.75 116.338 652.062C116.921 652.375 117.598 652.531 118.369 652.531C119.64 652.531 120.723 652.281 121.619 651.781C122.535 651.281 123.244 650.677 123.744 649.969C124.244 649.24 124.494 648.562 124.494 647.938L126.838 652C126.463 652.833 126.004 653.698 125.463 654.594C124.921 655.469 124.233 656.292 123.4 657.062C122.567 657.812 121.556 658.427 120.369 658.906C119.202 659.385 117.796 659.625 116.15 659.625C114.025 659.625 112.098 659.198 110.369 658.344C108.64 657.469 107.254 656.271 106.213 654.75C105.192 653.229 104.681 651.479 104.681 649.5C104.681 647.729 105.004 646.156 105.65 644.781C106.296 643.406 107.265 642.24 108.556 641.281C109.869 640.323 111.515 639.604 113.494 639.125C115.473 638.625 117.785 638.375 120.431 638.375H125.306ZM163.894 625.188V632.031H143.831V625.188H163.894ZM148.425 616.812H158.206V648.406C158.206 649.344 158.321 650.062 158.55 650.562C158.779 651.062 159.154 651.417 159.675 651.625C160.196 651.812 160.863 651.906 161.675 651.906C162.258 651.906 162.758 651.885 163.175 651.844C163.592 651.802 163.977 651.75 164.331 651.688V658.75C163.498 659.021 162.613 659.229 161.675 659.375C160.738 659.542 159.717 659.625 158.613 659.625C156.508 659.625 154.685 659.281 153.144 658.594C151.623 657.906 150.456 656.823 149.644 655.344C148.831 653.844 148.425 651.896 148.425 649.5V616.812ZM207.1 631.688V672H197.35V625.188H206.444L207.1 631.688ZM228.194 641.719V642.375C228.194 644.833 227.913 647.115 227.35 649.219C226.788 651.302 225.944 653.125 224.819 654.688C223.715 656.25 222.35 657.469 220.725 658.344C219.1 659.198 217.215 659.625 215.069 659.625C213.027 659.625 211.256 659.198 209.756 658.344C208.277 657.469 207.027 656.26 206.006 654.719C205.006 653.156 204.194 651.375 203.569 649.375C202.965 647.354 202.496 645.198 202.163 642.906V641.625C202.496 639.188 202.975 636.927 203.6 634.844C204.225 632.76 205.038 630.958 206.038 629.438C207.038 627.896 208.277 626.698 209.756 625.844C211.235 624.99 212.996 624.562 215.038 624.562C217.163 624.562 219.048 624.969 220.694 625.781C222.34 626.594 223.715 627.76 224.819 629.281C225.944 630.781 226.788 632.583 227.35 634.688C227.913 636.792 228.194 639.135 228.194 641.719ZM218.413 642.375V641.719C218.413 640.344 218.308 639.083 218.1 637.938C217.892 636.771 217.558 635.76 217.1 634.906C216.642 634.031 216.038 633.354 215.288 632.875C214.538 632.396 213.621 632.156 212.538 632.156C211.371 632.156 210.381 632.344 209.569 632.719C208.756 633.094 208.1 633.646 207.6 634.375C207.1 635.083 206.735 635.958 206.506 637C206.298 638.042 206.183 639.229 206.163 640.562V644C206.183 645.562 206.402 646.958 206.819 648.188C207.256 649.396 207.933 650.344 208.85 651.031C209.788 651.698 211.038 652.031 212.6 652.031C213.704 652.031 214.621 651.792 215.35 651.312C216.1 650.812 216.694 650.115 217.131 649.219C217.59 648.323 217.913 647.292 218.1 646.125C218.308 644.958 218.413 643.708 218.413 642.375ZM249.562 633.062V659H239.812V625.188H248.969L249.562 633.062ZM259.656 624.938L259.5 634.031C259.083 633.969 258.542 633.917 257.875 633.875C257.208 633.812 256.635 633.781 256.156 633.781C254.906 633.781 253.823 633.938 252.906 634.25C252.01 634.542 251.26 634.979 250.656 635.562C250.073 636.146 249.635 636.875 249.344 637.75C249.052 638.604 248.906 639.594 248.906 640.719L247.062 639.812C247.062 637.583 247.281 635.542 247.719 633.688C248.156 631.833 248.792 630.229 249.625 628.875C250.458 627.5 251.479 626.438 252.688 625.688C253.896 624.938 255.271 624.562 256.812 624.562C257.312 624.562 257.823 624.594 258.344 624.656C258.865 624.719 259.302 624.812 259.656 624.938ZM268.65 642.438V641.781C268.65 639.302 269.004 637.021 269.712 634.938C270.421 632.833 271.462 631.01 272.837 629.469C274.212 627.927 275.9 626.729 277.9 625.875C279.9 625 282.192 624.562 284.775 624.562C287.4 624.562 289.712 625 291.712 625.875C293.733 626.729 295.431 627.927 296.806 629.469C298.181 631.01 299.223 632.833 299.931 634.938C300.64 637.021 300.994 639.302 300.994 641.781V642.438C300.994 644.896 300.64 647.177 299.931 649.281C299.223 651.365 298.181 653.188 296.806 654.75C295.431 656.292 293.744 657.49 291.744 658.344C289.744 659.198 287.442 659.625 284.837 659.625C282.254 659.625 279.952 659.198 277.931 658.344C275.91 657.49 274.212 656.292 272.837 654.75C271.462 653.188 270.421 651.365 269.712 649.281C269.004 647.177 268.65 644.896 268.65 642.438ZM278.431 641.781V642.438C278.431 643.771 278.535 645.021 278.744 646.188C278.973 647.354 279.337 648.375 279.837 649.25C280.337 650.125 280.994 650.812 281.806 651.312C282.64 651.792 283.65 652.031 284.837 652.031C286.025 652.031 287.025 651.792 287.837 651.312C288.65 650.812 289.306 650.125 289.806 649.25C290.306 648.375 290.66 647.354 290.869 646.188C291.098 645.021 291.212 643.771 291.212 642.438V641.781C291.212 640.469 291.098 639.24 290.869 638.094C290.66 636.927 290.306 635.896 289.806 635C289.306 634.104 288.64 633.406 287.806 632.906C286.994 632.406 285.983 632.156 284.775 632.156C283.608 632.156 282.619 632.406 281.806 632.906C280.994 633.406 280.337 634.104 279.837 635C279.337 635.896 278.973 636.927 278.744 638.094C278.535 639.24 278.431 640.469 278.431 641.781ZM332.206 651.438V611H342.019V659H333.206L332.206 651.438ZM311.144 642.5V641.844C311.144 639.281 311.425 636.948 311.988 634.844C312.571 632.719 313.415 630.896 314.519 629.375C315.644 627.833 317.029 626.646 318.675 625.812C320.321 624.979 322.206 624.562 324.331 624.562C326.29 624.562 327.998 625 329.456 625.875C330.915 626.729 332.154 627.938 333.175 629.5C334.217 631.042 335.06 632.865 335.706 634.969C336.352 637.052 336.842 639.312 337.175 641.75V642.875C336.863 645.208 336.373 647.385 335.706 649.406C335.06 651.427 334.217 653.208 333.175 654.75C332.154 656.271 330.904 657.469 329.425 658.344C327.967 659.198 326.248 659.625 324.269 659.625C322.144 659.625 320.258 659.198 318.613 658.344C316.988 657.49 315.623 656.292 314.519 654.75C313.415 653.208 312.571 651.396 311.988 649.312C311.425 647.229 311.144 644.958 311.144 642.5ZM320.894 641.844V642.5C320.894 643.833 320.988 645.073 321.175 646.219C321.383 647.365 321.717 648.375 322.175 649.25C322.633 650.125 323.238 650.812 323.988 651.312C324.738 651.792 325.654 652.031 326.738 652.031C328.196 652.031 329.394 651.698 330.331 651.031C331.269 650.344 331.977 649.396 332.456 648.188C332.935 646.979 333.185 645.573 333.206 643.969V640.688C333.206 639.354 333.071 638.156 332.8 637.094C332.529 636.031 332.123 635.135 331.581 634.406C331.06 633.677 330.404 633.125 329.613 632.75C328.821 632.354 327.883 632.156 326.8 632.156C325.738 632.156 324.831 632.406 324.081 632.906C323.331 633.385 322.717 634.062 322.238 634.938C321.779 635.812 321.435 636.844 321.206 638.031C320.998 639.198 320.894 640.469 320.894 641.844ZM374.763 650.844V625.188H384.575V659H375.388L374.763 650.844ZM375.794 643.938L378.481 643.875C378.481 646.146 378.21 648.24 377.669 650.156C377.148 652.073 376.356 653.74 375.294 655.156C374.252 656.573 372.95 657.677 371.388 658.469C369.846 659.24 368.044 659.625 365.981 659.625C364.315 659.625 362.783 659.396 361.388 658.938C360.013 658.458 358.825 657.719 357.825 656.719C356.825 655.698 356.054 654.396 355.513 652.812C354.971 651.208 354.7 649.292 354.7 647.062V625.188H364.45V647.125C364.45 648 364.554 648.75 364.763 649.375C364.992 649.979 365.294 650.479 365.669 650.875C366.065 651.271 366.544 651.562 367.106 651.75C367.69 651.938 368.325 652.031 369.013 652.031C370.742 652.031 372.096 651.677 373.075 650.969C374.075 650.24 374.773 649.271 375.169 648.062C375.585 646.833 375.794 645.458 375.794 643.938ZM411.444 652.031C412.485 652.031 413.392 651.833 414.163 651.438C414.933 651.042 415.527 650.49 415.944 649.781C416.381 649.052 416.6 648.177 416.6 647.156H425.788C425.788 649.615 425.152 651.781 423.881 653.656C422.631 655.531 420.944 657 418.819 658.062C416.694 659.104 414.298 659.625 411.631 659.625C409.006 659.625 406.715 659.198 404.756 658.344C402.798 657.469 401.163 656.25 399.85 654.688C398.538 653.125 397.548 651.312 396.881 649.25C396.235 647.167 395.913 644.917 395.913 642.5V641.688C395.913 639.292 396.235 637.052 396.881 634.969C397.548 632.885 398.538 631.062 399.85 629.5C401.163 627.938 402.788 626.729 404.725 625.875C406.683 625 408.975 624.562 411.6 624.562C414.371 624.562 416.819 625.094 418.944 626.156C421.09 627.219 422.767 628.75 423.975 630.75C425.183 632.729 425.788 635.115 425.788 637.906H416.6C416.6 636.823 416.402 635.854 416.006 635C415.631 634.125 415.048 633.438 414.256 632.938C413.485 632.417 412.527 632.156 411.381 632.156C410.194 632.156 409.215 632.417 408.444 632.938C407.694 633.438 407.121 634.135 406.725 635.031C406.329 635.927 406.058 636.948 405.913 638.094C405.767 639.219 405.694 640.417 405.694 641.688V642.5C405.694 643.792 405.767 645.021 405.913 646.188C406.058 647.333 406.329 648.344 406.725 649.219C407.142 650.094 407.725 650.781 408.475 651.281C409.225 651.781 410.215 652.031 411.444 652.031ZM454.219 625.188V632.031H434.156V625.188H454.219ZM438.75 616.812H448.531V648.406C448.531 649.344 448.646 650.062 448.875 650.562C449.104 651.062 449.479 651.417 450 651.625C450.521 651.812 451.188 651.906 452 651.906C452.583 651.906 453.083 651.885 453.5 651.844C453.917 651.802 454.302 651.75 454.656 651.688V658.75C453.823 659.021 452.938 659.229 452 659.375C451.062 659.542 450.042 659.625 448.938 659.625C446.833 659.625 445.01 659.281 443.469 658.594C441.948 657.906 440.781 656.823 439.969 655.344C439.156 653.844 438.75 651.896 438.75 649.5V616.812ZM483.306 649.594C483.306 648.969 483.108 648.417 482.712 647.938C482.337 647.458 481.65 647.021 480.65 646.625C479.671 646.229 478.285 645.833 476.494 645.438C474.806 645.083 473.233 644.625 471.775 644.062C470.317 643.479 469.046 642.781 467.962 641.969C466.879 641.135 466.035 640.156 465.431 639.031C464.827 637.885 464.525 636.583 464.525 635.125C464.525 633.708 464.827 632.365 465.431 631.094C466.056 629.823 466.952 628.698 468.119 627.719C469.306 626.74 470.744 625.969 472.431 625.406C474.14 624.844 476.077 624.562 478.244 624.562C481.223 624.562 483.796 625.031 485.962 625.969C488.129 626.885 489.796 628.177 490.962 629.844C492.129 631.49 492.712 633.375 492.712 635.5H482.962C482.962 634.625 482.796 633.865 482.462 633.219C482.129 632.573 481.619 632.073 480.931 631.719C480.244 631.344 479.337 631.156 478.212 631.156C477.337 631.156 476.567 631.312 475.9 631.625C475.254 631.917 474.744 632.323 474.369 632.844C474.015 633.365 473.837 633.969 473.837 634.656C473.837 635.135 473.942 635.573 474.15 635.969C474.379 636.344 474.723 636.698 475.181 637.031C475.66 637.344 476.275 637.625 477.025 637.875C477.796 638.125 478.733 638.365 479.837 638.594C482.192 639.031 484.337 639.646 486.275 640.438C488.233 641.229 489.796 642.323 490.962 643.719C492.15 645.115 492.744 646.958 492.744 649.25C492.744 650.75 492.4 652.125 491.712 653.375C491.046 654.625 490.077 655.719 488.806 656.656C487.535 657.594 486.015 658.323 484.244 658.844C482.473 659.365 480.473 659.625 478.244 659.625C475.056 659.625 472.358 659.052 470.15 657.906C467.942 656.76 466.275 655.323 465.15 653.594C464.046 651.844 463.494 650.052 463.494 648.219H472.65C472.692 649.344 472.973 650.26 473.494 650.969C474.035 651.677 474.733 652.198 475.587 652.531C476.442 652.844 477.4 653 478.462 653C479.525 653 480.41 652.854 481.119 652.562C481.827 652.271 482.369 651.875 482.744 651.375C483.119 650.854 483.306 650.26 483.306 649.594Z" fill="#270000"/>
</svg>
